<?xml version="1.0" standalone="no"?>
<!DOCTYPE svg PUBLIC "-//W3C//DTD SVG 20010904//EN"
 "http://www.w3.org/TR/2001/REC-SVG-20010904/DTD/svg10.dtd">
<svg version="1.0" xmlns="http://www.w3.org/2000/svg"
 width="2216.235700pt" height="452.429196pt" viewBox="0 0 2216.235700 452.429196"
 preserveAspectRatio="xMidYMid meet">
<metadata>
Created by potrace 1.16, written by Peter Selinger 2001-2019
</metadata>
<g transform="translate(-4.000000,456.440794) scale(0.100000,-0.100000)"
fill="#f26a21" stroke="none">
<path d="M19705 4560 c-90 -3 -159 -10 -172 -18 -12 -7 -50 -15 -85 -18 -35
-3 -84 -14 -110 -25 -26 -10 -58 -19 -73 -19 -14 0 -43 -9 -65 -20 -22 -11
-50 -20 -62 -20 -13 0 -36 -9 -53 -20 -16 -11 -38 -20 -48 -20 -10 0 -35 -9
-55 -19 -20 -11 -66 -33 -102 -50 -90 -43 -191 -99 -210 -116 -9 -8 -19 -15
-23 -15 -12 0 -159 -107 -227 -165 -132 -113 -395 -412 -417 -473 -3 -10 -14
-26 -24 -37 -18 -21 -65 -101 -99 -170 -11 -22 -24 -47 -28 -55 -33 -58 -52
-102 -52 -117 0 -10 -9 -31 -20 -48 -11 -16 -20 -39 -20 -50 0 -11 -9 -37 -20
-58 -11 -20 -20 -47 -20 -59 0 -13 -9 -43 -20 -67 -11 -24 -20 -58 -20 -77 0
-19 -9 -60 -19 -91 -11 -33 -21 -100 -24 -153 -3 -52 -11 -135 -18 -183 -11
-76 -11 -110 4 -245 10 -86 17 -179 17 -205 0 -26 7 -62 16 -79 9 -16 18 -56
21 -87 3 -31 14 -72 25 -91 10 -19 18 -47 18 -62 0 -16 9 -45 20 -65 11 -21
20 -47 20 -58 0 -11 9 -33 20 -50 11 -16 20 -40 20 -51 0 -12 9 -33 20 -47 11
-14 20 -33 20 -42 0 -9 9 -28 20 -42 11 -14 20 -33 20 -43 0 -9 9 -25 20 -35
11 -10 20 -26 20 -35 0 -9 9 -25 20 -35 11 -10 20 -22 20 -26 0 -5 11 -25 25
-46 14 -21 31 -46 38 -57 6 -10 24 -34 40 -54 15 -19 27 -38 27 -41 1 -20 289
-310 373 -374 149 -114 167 -127 176 -127 5 0 16 -6 23 -13 7 -7 43 -30 80
-51 37 -21 70 -42 74 -47 3 -5 13 -9 23 -9 10 0 28 -9 41 -20 13 -11 29 -20
37 -20 8 0 32 -9 54 -20 21 -11 57 -29 78 -40 22 -11 50 -20 63 -20 13 0 37
-9 53 -20 17 -11 40 -20 53 -20 12 0 39 -8 60 -19 20 -10 65 -21 100 -24 35
-4 73 -12 85 -19 16 -10 128 -14 446 -16 369 -3 431 -1 474 13 27 9 73 19 101
22 28 3 67 14 86 25 19 10 46 18 60 18 14 0 39 9 55 20 17 11 40 20 51 20 12
0 27 6 33 14 7 8 27 18 44 21 18 4 46 16 63 26 17 10 38 19 46 19 8 0 25 9 38
20 13 11 31 20 41 20 10 0 21 5 25 11 3 6 25 19 48 30 22 10 55 28 71 39 17
11 44 27 62 37 37 22 146 95 153 104 3 3 50 42 105 86 100 80 171 151 236 234
19 24 46 57 61 74 33 38 78 103 78 114 0 5 7 15 16 22 9 7 20 22 26 34 5 11
20 38 33 60 14 22 33 59 44 81 11 23 24 45 30 48 6 4 11 16 11 28 0 11 9 31
20 45 11 14 20 35 20 47 0 11 9 35 20 51 11 17 20 38 20 48 0 9 9 34 20 54 11
21 20 48 20 61 0 12 8 39 19 60 10 20 21 66 24 102 4 36 14 85 23 110 14 39
16 99 16 440 0 341 -2 401 -16 440 -9 25 -19 74 -23 110 -3 36 -14 82 -24 102
-11 21 -19 47 -19 58 0 11 -9 38 -20 60 -11 22 -20 46 -20 55 0 9 -9 33 -19
53 -11 20 -40 80 -66 132 -25 52 -57 113 -70 135 -14 22 -32 54 -41 70 -17 31
-48 73 -147 201 -98 127 -329 346 -447 424 -13 8 -35 25 -50 38 -15 12 -33 22
-38 22 -6 0 -17 6 -24 14 -17 16 -119 74 -208 116 -36 17 -82 40 -102 51 -20
10 -45 19 -55 19 -10 0 -31 9 -48 20 -16 11 -41 20 -55 20 -14 0 -42 9 -63 20
-20 11 -52 20 -69 20 -18 0 -53 9 -77 20 -24 11 -62 20 -86 20 -24 0 -71 9
-106 19 -74 22 -346 31 -604 21z m462 -1020 c32 -11 68 -20 82 -20 23 0 75
-21 153 -61 20 -10 43 -19 51 -19 8 0 22 -9 32 -20 10 -11 24 -20 31 -20 36 0
269 -202 312 -270 9 -14 32 -44 50 -68 36 -44 49 -65 95 -160 16 -31 37 -74
48 -94 10 -20 19 -47 19 -60 0 -13 7 -34 16 -47 9 -12 20 -48 24 -79 5 -32 16
-77 25 -102 24 -65 18 -409 -8 -457 -9 -18 -17 -50 -17 -73 0 -22 -9 -58 -20
-80 -11 -22 -20 -51 -20 -65 0 -14 -9 -43 -19 -63 -11 -20 -36 -73 -58 -117
-21 -43 -47 -91 -58 -105 -11 -14 -33 -44 -49 -67 -48 -71 -236 -253 -262
-253 -4 0 -16 -7 -26 -17 -22 -19 -42 -31 -128 -73 -119 -59 -147 -70 -171
-70 -13 0 -37 -7 -54 -16 -70 -38 -483 -40 -578 -3 -26 11 -57 19 -67 19 -11
0 -37 9 -57 20 -21 11 -45 20 -53 20 -9 0 -26 7 -39 16 -13 9 -48 30 -78 46
-31 16 -61 34 -67 39 -6 5 -49 39 -95 76 -76 61 -160 150 -201 212 -8 13 -24
35 -35 49 -25 33 -46 71 -85 152 -17 36 -38 77 -46 92 -8 14 -14 35 -14 45 0
10 -9 36 -20 58 -11 22 -20 58 -20 81 0 23 -8 59 -17 80 -26 57 -26 377 0 447
9 26 17 64 17 84 0 20 9 54 19 77 11 23 22 57 26 77 3 21 12 42 20 49 8 7 15
21 15 32 0 11 9 31 20 45 11 14 20 33 20 43 0 9 9 25 20 35 11 10 20 22 20 26
0 14 56 92 117 162 105 120 227 220 353 286 78 41 101 51 117 51 10 0 30 8 43
17 13 9 45 20 70 24 25 4 63 14 85 23 31 12 82 15 223 16 158 0 190 -3 239
-20z"/>
<path d="M2075 4534 c-55 -7 -135 -13 -178 -13 -49 -1 -89 -7 -107 -16 -16 -9
-51 -18 -77 -22 -27 -3 -64 -14 -83 -25 -19 -10 -46 -18 -60 -18 -14 0 -38 -9
-55 -20 -16 -11 -38 -20 -48 -20 -10 0 -35 -9 -55 -19 -20 -11 -66 -34 -102
-51 -84 -40 -168 -87 -199 -111 -13 -11 -28 -19 -33 -19 -6 0 -32 -18 -58 -40
-26 -22 -51 -40 -55 -40 -15 0 -156 -124 -259 -226 -117 -117 -248 -275 -301
-362 -5 -10 -27 -42 -47 -73 -21 -31 -38 -61 -38 -66 0 -5 -9 -20 -20 -33 -11
-13 -20 -31 -20 -40 0 -9 -9 -25 -20 -35 -11 -10 -20 -24 -20 -32 0 -8 -10
-33 -21 -56 -52 -101 -59 -117 -59 -134 0 -10 -9 -31 -20 -48 -11 -16 -20 -41
-20 -55 0 -14 -9 -42 -20 -63 -11 -20 -20 -54 -20 -76 0 -21 -9 -67 -20 -101
-18 -58 -20 -90 -20 -404 0 -309 2 -350 20 -417 11 -41 20 -93 20 -115 0 -23
9 -61 20 -85 11 -24 20 -55 20 -69 0 -14 9 -38 20 -55 11 -16 20 -42 20 -56 0
-15 6 -32 14 -38 8 -7 17 -24 21 -39 7 -31 84 -188 120 -247 14 -22 32 -54 39
-71 8 -17 22 -36 30 -44 9 -7 16 -17 16 -22 0 -25 217 -293 311 -384 80 -77
272 -234 287 -234 5 0 17 -9 27 -20 10 -11 23 -20 28 -20 6 0 18 -7 28 -16 19
-17 48 -34 156 -88 40 -20 74 -40 77 -45 3 -5 21 -12 40 -15 19 -4 39 -13 46
-21 7 -8 22 -15 34 -15 11 0 35 -9 51 -20 17 -11 41 -20 55 -20 14 0 39 -9 55
-20 17 -11 44 -20 60 -20 17 0 50 -9 74 -20 24 -11 62 -20 85 -20 22 0 77 -9
121 -20 71 -18 115 -20 410 -20 264 0 343 3 389 15 32 8 103 19 157 24 54 4
105 13 113 20 7 6 38 14 67 18 30 3 70 14 89 25 19 10 43 18 52 18 10 0 35 9
55 20 21 11 46 20 56 20 10 0 30 9 44 20 14 11 33 20 42 21 9 0 39 14 66 30
28 16 65 36 84 45 18 8 38 19 45 25 24 20 87 59 96 59 5 0 13 6 17 13 4 7 40
38 78 69 39 31 91 78 116 104 44 46 175 211 227 286 103 146 218 358 209 382
-7 18 -39 36 -152 86 -22 9 -60 27 -85 39 -25 11 -52 21 -60 21 -8 0 -28 9
-45 20 -16 11 -38 20 -49 20 -10 0 -33 9 -50 19 -17 10 -45 22 -63 26 -17 3
-37 13 -44 21 -6 8 -21 14 -33 14 -11 0 -34 9 -51 20 -16 11 -39 20 -50 20
-11 0 -33 9 -50 20 -16 11 -39 20 -50 20 -11 0 -30 6 -41 14 -11 8 -47 24 -80
35 l-59 20 -15 -20 c-84 -115 -217 -274 -261 -312 -85 -75 -180 -138 -289
-192 -30 -15 -72 -35 -92 -46 -20 -10 -50 -19 -65 -19 -15 0 -41 -8 -58 -17
-62 -34 -508 -34 -570 0 -16 9 -44 17 -60 17 -17 0 -47 9 -68 20 -20 11 -45
20 -56 20 -10 0 -29 8 -42 18 -13 10 -35 23 -49 30 -101 48 -309 234 -377 337
-15 22 -32 45 -38 50 -15 14 -105 172 -105 184 0 6 -9 25 -20 43 -11 18 -20
45 -20 59 0 15 -9 46 -20 70 -12 28 -20 66 -20 104 0 33 -7 87 -15 120 -19 78
-19 213 0 312 8 43 15 101 15 128 0 28 7 64 16 80 8 17 20 52 25 79 5 27 16
57 24 66 8 9 15 26 15 37 0 11 9 32 20 46 11 14 20 30 20 36 0 7 8 24 18 39
11 15 32 47 48 72 16 24 36 52 44 61 8 10 20 24 25 31 58 76 192 204 256 243
95 59 203 115 221 115 8 0 31 9 53 20 22 11 54 20 73 20 18 0 47 8 65 17 47
26 348 31 427 8 30 -9 80 -20 112 -24 31 -5 67 -16 79 -25 13 -9 35 -16 50
-16 14 0 36 -9 49 -20 13 -11 31 -20 40 -20 9 0 25 -9 35 -20 10 -11 22 -20
27 -20 22 0 165 -129 320 -290 155 -160 169 -172 195 -166 15 4 42 10 58 13
17 3 41 14 54 24 13 11 33 19 45 19 12 0 38 9 59 20 20 11 45 20 54 20 10 0
32 9 48 20 17 11 39 20 50 20 11 0 34 9 50 20 17 11 38 20 48 20 9 0 34 9 54
20 21 11 45 20 53 20 8 0 29 9 45 20 17 11 38 20 48 20 11 0 30 9 44 20 14 11
31 20 38 20 10 0 64 26 161 78 13 7 24 19 24 26 0 16 -32 85 -63 137 -98 164
-391 502 -500 576 -23 15 -63 44 -89 63 -25 19 -76 53 -113 75 -37 22 -83 50
-101 63 -19 12 -41 22 -48 22 -7 0 -21 9 -31 20 -10 11 -27 20 -37 20 -11 0
-31 9 -45 20 -14 11 -33 20 -43 20 -10 0 -29 9 -43 20 -14 11 -33 20 -44 20
-10 0 -31 9 -48 20 -16 11 -41 20 -54 20 -13 0 -38 8 -55 19 -17 10 -51 21
-76 24 -25 3 -58 12 -75 20 -17 8 -78 17 -140 21 -60 3 -137 11 -170 16 -81
13 -377 10 -500 -6z"/>
<path d="M9975 4511 c-55 -4 -185 -14 -290 -21 -114 -8 -195 -18 -203 -25 -24
-21 -35 -623 -28 -1530 3 -462 9 -1280 12 -1818 6 -771 10 -981 20 -991 9 -9
73 -15 226 -19 117 -3 319 -11 448 -17 129 -6 271 -10 315 -8 l80 3 5 695 5
695 270 3 c307 3 273 12 348 -98 70 -102 106 -155 142 -205 20 -27 50 -70 66
-95 16 -25 47 -70 69 -100 59 -80 100 -140 100 -146 0 -2 18 -27 40 -55 22
-28 40 -55 40 -59 0 -5 6 -15 13 -22 6 -7 20 -24 30 -38 25 -36 70 -102 82
-121 22 -35 90 -134 95 -139 6 -5 76 -108 95 -139 77 -123 91 -136 175 -157
68 -17 117 -19 550 -19 430 0 483 2 555 19 44 10 86 23 93 29 33 26 5 80 -133
253 -44 56 -89 114 -100 130 -11 15 -27 35 -36 43 -16 17 -143 184 -191 252
-15 21 -44 61 -65 88 -21 27 -49 66 -63 86 -25 36 -42 57 -72 93 -9 11 -22 31
-29 43 -6 13 -16 28 -21 33 -8 10 -37 49 -138 186 -22 30 -64 87 -93 125 -29
39 -65 89 -81 113 l-29 42 29 28 c34 31 131 110 164 132 13 8 33 24 46 35 45
40 63 54 82 64 37 20 85 67 148 146 35 44 70 87 77 95 16 18 33 47 51 86 8 17
22 36 30 44 9 7 16 19 16 27 0 8 9 26 20 40 11 14 20 33 20 43 0 10 9 29 20
43 11 14 20 33 20 42 0 10 9 36 19 59 44 95 63 399 37 578 -9 58 -16 132 -16
164 0 34 -7 72 -16 89 -8 17 -18 53 -21 80 -3 28 -14 64 -24 81 -11 17 -19 44
-19 59 0 15 -9 38 -20 52 -11 14 -20 31 -20 38 0 13 -29 69 -74 146 -116 199
-314 386 -521 493 -16 9 -37 20 -45 24 -39 23 -123 57 -200 82 -14 4 -47 16
-75 25 -27 9 -77 21 -110 25 -33 5 -76 15 -95 23 -23 10 -97 17 -220 21 -102
4 -219 12 -260 17 -92 12 -1207 20 -1345 10z m1459 -1015 c27 -9 71 -16 98
-16 29 0 65 -8 88 -20 22 -11 45 -20 53 -20 33 0 207 -155 207 -185 0 -4 9
-18 20 -32 11 -14 20 -34 20 -44 0 -11 9 -36 20 -56 17 -32 20 -57 20 -173 0
-116 -3 -141 -20 -175 -11 -22 -20 -48 -20 -58 0 -10 -9 -30 -20 -44 -11 -14
-20 -32 -20 -39 0 -7 -28 -41 -62 -76 -65 -65 -143 -118 -175 -118 -10 0 -29
-7 -42 -17 -13 -9 -54 -19 -90 -23 -36 -4 -100 -15 -141 -25 -64 -14 -116 -16
-345 -12 -181 3 -283 8 -310 17 -22 7 -65 16 -95 19 l-55 6 0 532 0 531 25 27
25 27 385 -5 c323 -3 393 -7 434 -21z"/>
<path d="M13470 4510 c-267 -21 -297 -29 -280 -76 6 -14 10 -37 10 -52 0 -15
9 -40 20 -57 11 -16 20 -40 20 -51 0 -12 6 -27 14 -33 8 -7 17 -24 20 -39 6
-23 20 -57 58 -134 4 -10 12 -26 16 -35 5 -10 18 -37 30 -60 12 -23 22 -48 22
-56 0 -8 9 -24 20 -37 11 -13 20 -31 20 -40 0 -10 9 -29 20 -43 11 -14 20 -33
20 -42 0 -9 9 -28 20 -42 11 -14 20 -32 20 -40 0 -8 9 -26 20 -40 11 -14 20
-32 20 -40 0 -8 9 -26 20 -40 11 -14 20 -31 20 -39 0 -11 65 -148 91 -194 5
-8 12 -22 15 -30 3 -8 25 -55 49 -105 23 -49 48 -101 54 -115 6 -14 15 -32 19
-40 29 -52 52 -101 52 -110 0 -7 9 -23 20 -37 11 -14 20 -33 20 -43 0 -10 9
-29 20 -43 11 -14 20 -32 20 -40 0 -8 9 -26 20 -40 11 -14 20 -33 20 -42 0 -9
9 -28 20 -42 11 -14 20 -32 20 -40 0 -8 9 -26 20 -40 11 -14 20 -31 20 -39 0
-7 18 -48 39 -91 38 -75 147 -302 170 -353 6 -14 15 -32 19 -40 29 -52 52
-101 52 -110 0 -7 9 -23 20 -37 11 -14 20 -33 20 -43 0 -9 9 -27 20 -40 11
-13 20 -31 20 -40 0 -10 9 -29 20 -43 11 -14 20 -33 20 -42 0 -9 9 -28 20 -42
11 -14 20 -32 20 -40 0 -8 9 -26 20 -40 11 -14 20 -34 20 -43 0 -10 7 -23 15
-30 8 -7 15 -18 15 -24 0 -10 80 -180 101 -216 5 -8 12 -22 15 -30 4 -8 34
-73 69 -145 34 -71 67 -141 73 -155 7 -14 16 -32 20 -40 29 -52 52 -101 52
-110 0 -7 9 -23 20 -37 11 -14 20 -33 20 -43 0 -9 9 -27 20 -40 11 -13 20 -31
20 -40 0 -10 9 -29 20 -43 11 -14 20 -31 20 -39 0 -7 9 -26 20 -43 11 -16 20
-36 20 -43 0 -8 9 -25 20 -39 11 -14 20 -33 20 -43 0 -9 9 -25 20 -35 11 -10
20 -26 20 -35 0 -9 9 -27 20 -40 11 -13 20 -27 20 -31 0 -20 58 -88 92 -108
48 -27 82 -27 133 3 37 22 95 92 95 114 0 5 9 17 20 27 11 10 20 25 20 32 0 8
9 26 20 40 11 14 20 33 20 43 0 9 9 25 20 35 11 10 20 26 20 35 0 10 9 29 20
43 11 14 20 31 20 39 0 7 9 27 20 43 11 17 20 36 20 43 0 8 9 25 20 39 11 14
20 32 20 40 0 8 9 26 20 40 11 14 20 33 20 43 0 9 9 27 20 40 11 13 20 31 20
40 0 10 9 29 20 43 11 14 20 30 20 37 0 9 23 58 52 110 4 8 13 26 19 40 6 14
15 32 20 40 5 8 14 26 20 40 7 14 46 97 89 185 42 88 82 171 88 185 7 14 16
32 21 40 26 45 91 183 91 194 0 8 9 25 20 39 11 14 20 32 20 40 0 8 9 26 20
40 11 14 20 32 20 40 0 8 9 26 20 40 11 14 20 33 20 42 0 9 9 28 20 42 11 14
20 32 20 40 0 8 9 26 20 40 11 14 20 33 20 43 0 10 9 29 20 43 11 14 20 30 20
37 0 9 23 58 52 110 4 8 13 26 19 40 7 14 37 79 69 145 31 66 62 131 68 145 7
14 16 32 21 40 20 34 61 126 61 138 0 6 4 12 10 12 5 0 14 17 20 39 5 21 17
44 25 51 8 7 15 20 15 30 0 9 9 29 20 43 11 14 20 33 20 42 0 9 9 28 20 42 11
14 20 33 20 43 0 10 9 29 20 43 11 14 20 30 20 37 0 6 9 28 20 48 10 20 40 82
65 137 26 55 51 107 56 115 5 8 12 22 15 30 3 8 23 51 44 95 21 44 43 91 49
105 6 14 15 32 20 40 5 8 14 26 20 40 6 14 15 32 19 40 29 52 52 101 52 110 0
7 9 23 20 37 11 14 20 32 20 40 0 8 9 26 20 40 11 14 20 33 20 43 0 10 9 29
20 43 11 14 20 33 20 42 0 9 9 28 20 42 11 14 20 35 20 47 0 11 9 35 20 51 27
41 26 83 -2 94 -96 38 -895 52 -1073 18 -77 -14 -94 -21 -117 -47 -21 -22 -28
-41 -28 -71 0 -22 -8 -52 -18 -67 -29 -44 -42 -66 -53 -92 -6 -14 -15 -32 -20
-40 -5 -8 -14 -25 -19 -37 -6 -13 -14 -33 -20 -45 -5 -13 -14 -30 -18 -38 -9
-16 -40 -83 -75 -160 -11 -25 -28 -62 -38 -82 -11 -20 -19 -43 -19 -51 0 -8
-9 -26 -20 -40 -11 -14 -20 -34 -20 -45 0 -10 -9 -31 -20 -45 -11 -14 -20 -32
-20 -41 0 -8 -9 -30 -20 -48 -11 -18 -20 -40 -20 -49 0 -9 -8 -27 -19 -40 -10
-13 -22 -38 -25 -56 -4 -17 -14 -37 -22 -44 -8 -6 -14 -20 -14 -31 0 -11 -9
-31 -20 -45 -11 -14 -20 -32 -20 -40 0 -8 -8 -31 -19 -51 -10 -20 -29 -59 -41
-87 -12 -27 -31 -67 -41 -87 -11 -20 -19 -43 -19 -51 0 -8 -9 -26 -20 -40 -11
-14 -20 -33 -20 -42 0 -9 -9 -28 -20 -42 -11 -14 -20 -32 -20 -40 0 -8 -9 -32
-20 -54 -11 -21 -29 -57 -40 -78 -11 -22 -20 -46 -20 -54 0 -8 -9 -26 -20 -40
-11 -14 -20 -34 -20 -45 0 -10 -9 -31 -20 -45 -11 -14 -20 -33 -20 -44 -1 -10
-14 -33 -30 -52 -35 -41 -68 -38 -93 11 -9 18 -21 40 -26 48 -5 8 -14 26 -20
40 -6 14 -15 32 -20 40 -5 8 -14 26 -20 40 -6 14 -15 32 -19 40 -31 56 -52
101 -52 113 0 8 -9 26 -20 40 -11 14 -20 33 -20 42 0 9 -9 28 -20 42 -11 14
-20 32 -20 40 0 12 -21 57 -52 113 -4 8 -13 26 -19 40 -27 62 -53 118 -70 152
-11 20 -19 43 -19 51 0 8 -9 26 -20 40 -11 14 -20 33 -20 42 0 9 -9 28 -20 42
-11 14 -20 35 -20 45 0 11 -9 31 -20 45 -11 14 -20 32 -20 40 0 8 -9 32 -20
54 -11 21 -29 57 -40 78 -11 22 -20 46 -20 54 0 8 -9 26 -20 40 -11 14 -20 33
-20 42 0 9 -9 28 -20 42 -11 14 -20 32 -20 40 0 8 -10 33 -21 56 -51 100 -59
117 -59 130 0 8 -9 26 -20 40 -11 14 -20 34 -20 45 0 10 -9 29 -20 42 -11 13
-20 32 -20 42 0 11 -9 31 -20 45 -11 14 -20 35 -20 47 0 11 -9 35 -20 51 -11
17 -20 42 -20 57 0 87 -99 108 -535 113 -165 2 -343 0 -395 -5z"/>
<path d="M6675 4500 c-44 -18 -80 -76 -214 -347 -23 -45 -46 -85 -51 -88 -6
-3 -10 -13 -10 -22 0 -8 -9 -26 -20 -40 -11 -14 -20 -33 -20 -43 0 -9 -9 -25
-20 -35 -11 -10 -20 -26 -20 -35 0 -10 -9 -29 -20 -43 -11 -14 -20 -32 -20
-40 0 -8 -8 -25 -18 -38 -10 -13 -42 -71 -71 -129 -29 -58 -81 -159 -116 -225
-35 -66 -67 -127 -70 -135 -4 -8 -11 -22 -16 -30 -5 -8 -27 -52 -49 -97 -22
-45 -45 -85 -50 -88 -6 -3 -10 -13 -10 -22 0 -8 -9 -26 -20 -40 -11 -14 -20
-33 -20 -43 0 -9 -9 -25 -20 -35 -11 -10 -20 -26 -20 -35 0 -10 -9 -29 -20
-43 -11 -14 -20 -32 -20 -40 0 -8 -8 -25 -18 -38 -10 -13 -33 -53 -51 -89 -17
-36 -59 -114 -91 -175 -33 -60 -64 -121 -71 -135 -6 -14 -15 -32 -20 -40 -5
-8 -18 -33 -29 -55 -19 -39 -25 -51 -49 -90 -6 -11 -20 -38 -31 -60 -11 -22
-24 -47 -28 -55 -13 -22 -36 -66 -76 -145 -20 -38 -40 -77 -45 -85 -14 -27
-38 -74 -90 -175 -48 -94 -72 -140 -93 -175 -4 -8 -13 -26 -19 -40 -6 -14 -15
-32 -20 -40 -5 -8 -18 -34 -28 -56 -11 -23 -24 -45 -30 -48 -6 -4 -11 -15 -11
-25 0 -10 -9 -30 -20 -44 -11 -14 -20 -32 -20 -40 0 -7 -9 -24 -20 -37 -11
-13 -20 -30 -20 -37 0 -8 -9 -26 -20 -40 -11 -14 -20 -34 -20 -44 0 -10 -5
-21 -11 -25 -6 -3 -19 -25 -29 -49 -10 -24 -23 -46 -29 -49 -6 -4 -11 -15 -11
-25 0 -10 -9 -30 -20 -44 -11 -14 -20 -32 -20 -40 0 -8 -9 -26 -20 -40 -11
-14 -20 -32 -20 -40 0 -8 -9 -26 -20 -40 -11 -14 -20 -32 -20 -40 0 -8 -9 -26
-20 -40 -11 -14 -20 -32 -20 -40 0 -8 -9 -26 -20 -40 -11 -14 -20 -32 -20 -40
0 -8 -9 -26 -20 -40 -11 -14 -20 -32 -20 -40 0 -7 -9 -24 -20 -37 -11 -13 -20
-31 -20 -40 0 -9 -9 -27 -20 -40 -11 -13 -20 -31 -20 -40 0 -10 -9 -28 -19
-42 -29 -36 -35 -72 -17 -91 23 -23 174 -31 431 -23 121 3 329 9 463 13 280 7
270 4 322 106 34 67 58 113 72 137 4 8 13 26 19 40 7 14 46 97 89 185 42 88
82 171 88 185 7 14 16 32 21 40 26 45 91 183 91 194 0 8 9 25 20 39 11 14 20
32 20 40 0 8 9 26 20 40 11 14 20 33 20 42 0 9 9 28 20 42 11 14 20 33 20 43
0 9 9 27 20 40 11 13 20 29 20 37 0 12 21 58 52 113 4 8 13 26 19 40 7 14 37
79 69 145 31 66 62 131 68 145 7 14 16 32 21 40 5 8 69 134 141 280 175 352
196 390 226 420 l25 25 20 -25 c11 -14 29 -43 39 -65 11 -22 24 -48 30 -57 38
-66 90 -170 90 -181 0 -5 9 -20 20 -34 11 -14 20 -33 20 -43 0 -10 9 -29 20
-43 11 -14 20 -33 20 -42 0 -9 9 -28 20 -42 11 -14 20 -34 20 -43 0 -10 7 -23
15 -30 8 -7 15 -17 15 -24 0 -6 11 -33 24 -61 13 -27 43 -90 66 -140 23 -49
50 -107 61 -127 10 -20 19 -42 19 -48 0 -7 9 -23 20 -37 11 -14 20 -33 20 -43
0 -10 9 -29 20 -43 11 -14 20 -33 20 -42 0 -9 9 -28 20 -42 11 -14 20 -31 20
-39 0 -7 18 -48 39 -91 34 -66 129 -266 169 -353 7 -14 16 -32 20 -40 29 -52
52 -101 52 -110 0 -7 9 -23 20 -37 11 -14 20 -33 20 -43 0 -10 9 -29 20 -43
11 -14 20 -32 20 -40 0 -8 9 -26 20 -40 11 -14 20 -33 20 -42 0 -9 9 -28 20
-42 11 -14 20 -34 20 -43 0 -10 7 -23 15 -30 8 -7 20 -30 25 -51 6 -22 15 -39
20 -39 6 0 10 -5 10 -12 0 -6 14 -40 31 -75 l31 -64 527 4 c471 3 532 6 581
22 63 20 80 31 80 52 0 16 -38 94 -76 158 -13 22 -33 58 -44 80 -11 22 -47 90
-80 150 -32 61 -73 139 -91 175 -18 36 -41 76 -51 89 -10 13 -18 30 -18 38 0
8 -9 26 -20 40 -11 14 -20 32 -20 40 0 8 -9 26 -20 40 -11 14 -20 33 -20 43 0
9 -9 25 -20 35 -11 10 -20 26 -20 35 0 10 -9 29 -20 43 -11 14 -20 32 -20 40
0 7 -9 24 -20 37 -11 13 -20 30 -20 37 0 8 -9 26 -20 40 -11 14 -20 34 -20 44
0 10 -5 21 -11 25 -6 3 -19 25 -30 48 -10 22 -23 48 -27 56 -12 21 -29 53
-112 215 -71 139 -96 186 -111 215 -5 8 -23 44 -41 80 -17 36 -40 76 -50 89
-10 13 -18 30 -18 38 0 8 -9 26 -20 40 -11 14 -20 33 -20 43 0 9 -9 25 -20 35
-11 10 -20 26 -20 35 0 9 -9 27 -20 40 -11 13 -20 31 -20 41 0 10 -5 21 -11
25 -6 3 -19 25 -30 48 -10 22 -23 48 -28 56 -5 8 -12 22 -16 30 -3 8 -35 69
-70 135 -35 66 -81 154 -101 195 -21 41 -44 81 -51 88 -7 7 -13 20 -13 29 0 8
-9 26 -20 40 -11 14 -20 32 -20 40 0 8 -9 26 -20 40 -11 14 -20 33 -20 43 0 9
-9 25 -20 35 -11 10 -20 26 -20 35 0 10 -9 29 -20 43 -11 14 -20 30 -20 37 0
7 -9 23 -20 37 -11 14 -20 34 -20 44 0 10 -5 21 -11 25 -6 3 -19 25 -30 48
-10 22 -23 48 -28 56 -5 8 -14 26 -20 40 -7 14 -38 75 -71 135 -32 61 -76 144
-96 185 -21 41 -44 81 -51 88 -7 7 -13 20 -13 29 0 8 -9 26 -20 40 -11 14 -20
33 -20 43 0 9 -9 25 -20 35 -11 10 -20 26 -20 36 0 10 -5 21 -11 25 -6 3 -19
25 -30 48 -28 59 -92 173 -107 188 -6 6 -12 16 -12 21 0 6 -20 33 -44 62 -38
44 -53 54 -105 68 -66 18 -105 20 -136 7z"/>
</g>
</svg>
